<svg xmlns="http://www.w3.org/2000/svg" viewBox="0 0 192 192" fill="none">
  <rect width="192" height="192" rx="40" fill="#D97706"/>
  <g transform="translate(32, 28)">
    <!-- Book shape -->
    <path d="M64 8C48 8 32 14 24 24V120C32 110 48 104 64 104C80 104 96 110 104 120V24C96 14 80 8 64 8Z" fill="#FBF7F4" stroke="#FBF7F4" stroke-width="4"/>
    <!-- Center spine -->
    <line x1="64" y1="24" x2="64" y2="104" stroke="#D97706" stroke-width="2" opacity="0.3"/>
    <!-- Left page lines -->
    <line x1="32" y1="40" x2="56" y2="40" stroke="#D97706" stroke-width="2" opacity="0.2"/>
    <line x1="32" y1="52" x2="56" y2="52" stroke="#D97706" stroke-width="2" opacity="0.2"/>
    <line x1="32" y1="64" x2="56" y2="64" stroke="#D97706" stroke-width="2" opacity="0.2"/>
    <line x1="32" y1="76" x2="48" y2="76" stroke="#D97706" stroke-width="2" opacity="0.2"/>
    <!-- Right page lines -->
    <line x1="72" y1="40" x2="96" y2="40" stroke="#D97706" stroke-width="2" opacity="0.2"/>
    <line x1="72" y1="52" x2="96" y2="52" stroke="#D97706" stroke-width="2" opacity="0.2"/>
    <line x1="72" y1="64" x2="96" y2="64" stroke="#D97706" stroke-width="2" opacity="0.2"/>
    <line x1="72" y1="76" x2="88" y2="76" stroke="#D97706" stroke-width="2" opacity="0.2"/>
    <!-- Spoon accent -->
    <ellipse cx="96" cy="120" rx="8" ry="12" fill="#FBF7F4" opacity="0.8"/>
    <rect x="94" y="130" width="4" height="16" rx="2" fill="#FBF7F4" opacity="0.8"/>
  </g>
</svg>
